<?xml version="1.0" encoding="utf-8"?>
<!-- Generator: Adobe Illustrator 24.1.2, SVG Export Plug-In . SVG Version: 6.00 Build 0)  -->
<svg version="1.1" id="Слой_1" xmlns="http://www.w3.org/2000/svg" xmlns:xlink="http://www.w3.org/1999/xlink" x="0px" y="0px"
	 viewBox="0 0 2443.7 663.2" style="enable-background:new 0 0 2443.7 663.2;" xml:space="preserve">
<style type="text/css">
	.st0{fill:#FFFFFF;stroke:#000000;stroke-width:80;stroke-miterlimit:10;}
	.st1{fill:none;}
</style>
<path d="M300.5,336.2L300.5,336.2c-28.7,0-52-23.3-52-52v-224c0-28.7,23.3-52,52-52h0c28.7,0,52,23.3,52,52v224
	C352.5,312.9,329.2,336.2,300.5,336.2z"/>
<path class="st0" d="M60.5,318.2"/>
<path d="M297.5,232.2c-16.9,0.2-33.3,2.4-49,6.3l0,80.7c0,13.4,12.6,23.3,25.7,20.1c19.5-4.8,41.2-4.3,63.3,3.2
	c30.9,10.4,55.1,35,65.2,65.9c28.8,88.3-52.6,168.7-141,138.2c-29.7-10.3-53.2-33.8-63.5-63.5c-6.4-18.4-5.6-36.4-5.6-53.4
	c0-19.5-7.3-38.7-25.2-47.1l0,0c-35.2-16.5-76.3,7.1-79.3,45.8c-2.3,30.8,1.9,63.5,14.2,96.6c20.1,54.3,63,97.3,117.2,117.4
	c151.7,56.1,294.3-55.3,293-199.6C511.4,325.6,414.6,230.9,297.5,232.2z"/>
<path d="M300.5,445.2"/>
<g>
	<path d="M715.1,356.6V253.4c0-8.8,2-15.4,5.9-19.8s9.2-6.6,15.6-6.6c6.7,0,12.1,2.2,16,6.6s5.9,11,5.9,19.8V359c0,12,1.3,22,4,30.1
		c2.7,8.1,7.4,14.3,14.3,18.8c6.8,4.4,16.4,6.7,28.7,6.7c17,0,29-4.5,36-13.5c7-9,10.5-22.7,10.5-41.1V253.4c0-8.9,2-15.5,5.9-19.8
		c3.9-4.3,9.1-6.5,15.7-6.5c6.5,0,11.8,2.2,15.9,6.5c4.1,4.3,6.1,11,6.1,19.8v103.3c0,16.8-1.6,30.8-4.9,42
		c-3.3,11.2-9.4,21.1-18.5,29.6c-7.8,7.2-16.9,12.5-27.2,15.8c-10.4,3.3-22.5,5-36.3,5c-16.5,0-30.7-1.8-42.6-5.3
		c-11.9-3.6-21.6-9.1-29.2-16.6c-7.5-7.5-13-17-16.6-28.7C716.8,386.8,715.1,372.8,715.1,356.6z"/>
	<path d="M976.2,308.6v4.8c7-9.3,14.7-16.1,23.1-20.4c8.3-4.3,17.9-6.5,28.8-6.5c10.5,0,20,2.3,28.3,6.9
		c8.3,4.6,14.5,11.1,18.6,19.5c2.6,4.9,4.3,10.2,5.1,15.8c0.8,5.7,1.2,12.9,1.2,21.7v74.4c0,8-1.8,14.1-5.5,18.2s-8.4,6.2-14.3,6.2
		c-6,0-10.8-2.1-14.5-6.3c-3.7-4.2-5.6-10.2-5.6-18v-66.7c0-13.2-1.8-23.3-5.5-30.2c-3.7-7-11-10.5-21.9-10.5
		c-7.1,0-13.6,2.1-19.5,6.4s-10.2,10.1-12.9,17.5c-2,6-2.9,17.1-2.9,33.4v50.1c0,8.1-1.9,14.2-5.6,18.2c-3.8,4.1-8.6,6.1-14.6,6.1
		c-5.8,0-10.5-2.1-14.2-6.3c-3.7-4.2-5.6-10.2-5.6-18V309.2c0-7.6,1.7-13.3,5-17.1c3.3-3.8,7.9-5.6,13.6-5.6c3.5,0,6.7,0.8,9.5,2.5
		c2.8,1.7,5.1,4.2,6.8,7.5C975.4,299.7,976.2,303.8,976.2,308.6z"/>
	<path d="M1121.1,424.7V251.3c0-8,1.8-14.1,5.3-18.2c3.6-4.1,8.4-6.2,14.4-6.2c6.1,0,10.9,2,14.6,6.1c3.7,4.1,5.6,10.1,5.6,18.2
		v173.4c0,8.1-1.9,14.2-5.6,18.2c-3.8,4.1-8.6,6.1-14.6,6.1c-5.9,0-10.6-2.1-14.3-6.3S1121.1,432.6,1121.1,424.7z"/>
	<path d="M1352.1,367.8c0,11.9-1.9,22.9-5.6,33c-3.7,10.1-9.1,18.7-16.1,25.9c-7,7.2-15.4,12.8-25.2,16.6c-9.8,3.9-20.8,5.8-33,5.8
		c-12.1,0-23-2-32.7-5.9s-18-9.5-25.1-16.8c-7.1-7.3-12.5-15.9-16.1-25.8c-3.7-9.9-5.5-20.9-5.5-32.9c0-12.1,1.9-23.2,5.6-33.3
		c3.7-10.1,9-18.7,16-25.8c6.9-7.1,15.3-12.6,25.2-16.5c9.9-3.9,20.8-5.8,32.7-5.8c12.1,0,23.1,2,33,5.9c9.9,3.9,18.3,9.5,25.3,16.7
		c7,7.2,12.4,15.8,16,25.8S1352.1,355.7,1352.1,367.8z M1312,367.8c0-16.3-3.6-29-10.8-38.1s-16.8-13.6-28.9-13.6
		c-7.8,0-14.7,2-20.7,6.1c-6,4.1-10.5,10-13.8,17.9s-4.8,17.1-4.8,27.7c0,10.5,1.6,19.6,4.8,27.4c3.2,7.8,7.7,13.8,13.6,17.9
		c5.9,4.2,12.9,6.2,20.9,6.2c12.1,0,21.8-4.6,28.9-13.7C1308.4,396.5,1312,383.9,1312,367.8z"/>
	<path d="M1527,399.5c0,5-1.5,10.3-4.5,16c-3,5.7-7.5,11.1-13.6,16.2c-6.1,5.1-13.8,9.3-23.1,12.4c-9.3,3.1-19.7,4.7-31.3,4.7
		c-24.7,0-44-7.2-57.9-21.6c-13.9-14.4-20.8-33.7-20.8-57.9c0-16.4,3.2-30.9,9.5-43.5c6.3-12.6,15.5-22.3,27.5-29.2
		s26.4-10.3,43.1-10.3c10.3,0,19.8,1.5,28.5,4.5c8.6,3,16,6.9,22,11.7c6,4.8,10.6,9.9,13.8,15.3c3.2,5.4,4.8,10.5,4.8,15.2
		c0,4.8-1.8,8.8-5.3,12.2c-3.6,3.3-7.9,5-13,5c-3.3,0-6.1-0.9-8.3-2.6c-2.2-1.7-4.7-4.5-7.4-8.3c-4.9-7.4-10-13-15.3-16.7
		c-5.3-3.7-12.1-5.6-20.3-5.6c-11.8,0-21.3,4.6-28.6,13.8c-7.2,9.2-10.8,21.9-10.8,37.9c0,7.5,0.9,14.4,2.8,20.7
		c1.9,6.3,4.5,11.7,8.1,16.1c3.5,4.4,7.8,7.8,12.7,10.1c5,2.3,10.4,3.4,16.4,3.4c8,0,14.9-1.9,20.6-5.6c5.7-3.7,10.8-9.4,15.2-17
		c2.4-4.5,5.1-8,7.9-10.5c2.8-2.5,6.3-3.8,10.4-3.8c4.9,0,8.9,1.9,12.2,5.6C1525.4,391.4,1527,395.3,1527,399.5z"/>
	<path d="M1650.1,430.7l-35.3-58l-21.7,20.5V425c0,7.7-2,13.6-6.1,17.8c-4.1,4.1-8.7,6.2-14,6.2c-6.2,0-11-2.1-14.5-6.2
		s-5.3-10.2-5.3-18.2V254.2c0-8.9,1.7-15.6,5.1-20.3c3.4-4.6,8.3-7,14.6-7c6.2,0,11,2.1,14.6,6.3c3.6,4.2,5.4,10.4,5.4,18.6v97
		l45-47.2c5.6-5.9,9.8-9.9,12.7-12c2.9-2.1,6.5-3.2,10.7-3.2c5,0,9.1,1.6,12.5,4.8c3.3,3.2,5,7.2,5,11.9c0,5.9-5.4,13.7-16.3,23.4
		l-21.2,19.5l41,64.5c3,4.8,5.2,8.4,6.5,10.9s2,4.9,2,7.1c0,6.3-1.7,11.4-5.2,15c-3.5,3.7-8,5.5-13.7,5.5c-4.9,0-8.6-1.3-11.3-4
		S1654.6,437.7,1650.1,430.7z"/>
	<path d="M1825.7,311.4l32.4,90.8l34.9-94.8c2.7-7.6,5.4-13,8.1-16.2c2.6-3.2,6.6-4.8,12-4.8c5.1,0,9.4,1.7,13,5.1
		c3.6,3.4,5.3,7.4,5.3,11.9c0,1.8-0.3,3.8-1,6.2c-0.6,2.3-1.4,4.5-2.2,6.6c-0.8,2.1-1.8,4.4-2.9,7l-38.4,95.2
		c-1.1,2.7-2.5,6.2-4.2,10.4c-1.7,4.2-3.6,7.8-5.7,10.8c-2.1,3-4.7,5.3-7.8,7s-6.8,2.5-11.2,2.5c-5.7,0-10.2-1.3-13.5-3.9
		s-5.9-5.4-7.5-8.5s-4.3-9.2-8.1-18.2l-38.1-94.2c-0.9-2.3-1.8-4.7-2.7-7c-0.9-2.3-1.7-4.7-2.3-7.2c-0.6-2.4-1-4.5-1-6.3
		c0-2.7,0.8-5.4,2.5-8.1c1.7-2.7,4-4.9,6.9-6.6c2.9-1.7,6.1-2.6,9.5-2.6c6.6,0,11.2,1.9,13.7,5.7S1822.7,302.4,1825.7,311.4z"/>
	<path d="M1964,449.1c-6.1,0-11.3-2-15.7-5.9s-6.6-9.4-6.6-16.4c0-6,2.1-11.1,6.3-15.4c4.2-4.3,9.4-6.4,15.5-6.4s11.4,2.1,15.7,6.4
		c4.3,4.2,6.5,9.4,6.5,15.5c0,6.9-2.2,12.4-6.5,16.3C1974.9,447.1,1969.8,449.1,1964,449.1z"/>
	<path d="M2077.7,410.8h76.5c7.6,0,13.4,1.6,17.4,4.7c4,3.1,6,7.4,6,12.7c0,4.8-1.6,8.8-4.8,12.2c-3.2,3.3-8,5-14.4,5h-107.8
		c-7.3,0-13-2-17.1-6.1c-4.1-4.1-6.2-8.8-6.2-14.3c0-3.5,1.3-8.2,4-14c2.6-5.8,5.5-10.4,8.6-13.7c13-13.5,24.7-25,35.2-34.6
		c10.4-9.6,17.9-15.9,22.4-19c8-5.7,14.7-11.4,20-17.1c5.3-5.7,9.4-11.6,12.2-17.6s4.2-11.9,4.2-17.7c0-6.2-1.5-11.8-4.5-16.8
		c-3-4.9-7-8.8-12.2-11.5c-5.1-2.7-10.7-4.1-16.8-4.1c-12.8,0-22.9,5.6-30.2,16.8c-1,1.5-2.6,5.5-4.9,12c-2.3,6.5-4.9,11.6-7.8,15.1
		c-2.9,3.5-7.1,5.3-12.7,5.3c-4.9,0-8.9-1.6-12.2-4.8s-4.8-7.6-4.8-13.2c0-6.7,1.5-13.8,4.5-21.1c3-7.3,7.5-14,13.5-19.9
		c6-6,13.6-10.8,22.9-14.4s20-5.5,32.4-5.5c14.9,0,27.7,2.3,38.2,7c6.8,3.1,12.8,7.4,18,12.9c5.2,5.5,9.2,11.8,12.1,19
		c2.9,7.2,4.3,14.6,4.3,22.3c0,12.1-3,23.1-9,33c-6,9.9-12.1,17.7-18.4,23.3c-6.3,5.6-16.7,14.4-31.4,26.4
		c-14.7,12-24.8,21.3-30.2,28C2082.5,403.9,2080.1,407.1,2077.7,410.8z"/>
</g>
<rect x="514.8" y="270.5" class="st1" width="1029.9" height="14.1"/>
</svg>
