<svg id="Слой_1" data-name="Слой 1" xmlns="http://www.w3.org/2000/svg" viewBox="0 0 425 649"><defs><style>.cls-1{fill:#fff;stroke:#000;stroke-miterlimit:10;stroke-width:80px;}</style></defs><rect x="161" width="104" height="328" rx="52"/><path class="cls-1" d="M60.46,318.22" transform="translate(-87.46 -8.22)"/><path d="M297.49,232.23a212.88,212.88,0,0,0-49,6.29v80.7a20.71,20.71,0,0,0,25.67,20.09c19.54-4.77,41.16-4.25,63.25,3.17a103.4,103.4,0,0,1,65.19,65.95c28.76,88.34-52.58,168.72-141,138.18a102.77,102.77,0,0,1-63.45-63.46c-6.38-18.43-5.57-36.38-5.6-53.41,0-19.52-7.29-38.66-25.16-47.07h0c-35.17-16.54-76.32,7.07-79.25,45.82C85.74,459.3,90,492,102.24,525.06A198.81,198.81,0,0,0,219.46,642.41c151.71,56.13,294.28-55.33,293-199.64C511.4,325.63,414.63,230.89,297.49,232.23Z" transform="translate(-87.46 -8.22)"/><path d="M300.46,445.22" transform="translate(-87.46 -8.22)"/></svg>